<mxfile host="app.diagrams.net" modified="2023-10-04T21:15:33.536Z" agent="Mozilla/5.0 (Windows NT 10.0; Win64; x64) AppleWebKit/537.36 (KHTML, like Gecko) Chrome/115.0.0.0 Safari/537.36" etag="mQm72YUyXqSjOMPoj5ZD" version="22.0.2" type="github">
  <diagram id="C5RBs43oDa-KdzZeNtuy" name="Page-1">
    <mxGraphModel dx="1880" dy="785" grid="1" gridSize="10" guides="1" tooltips="1" connect="1" arrows="1" fold="1" page="1" pageScale="1" pageWidth="827" pageHeight="1169" math="0" shadow="0">
      <root>
        <mxCell id="WIyWlLk6GJQsqaUBKTNV-0" />
        <mxCell id="WIyWlLk6GJQsqaUBKTNV-1" parent="WIyWlLk6GJQsqaUBKTNV-0" />
        <mxCell id="5j41u80jV56_UQv9FX3_-18" value="" style="edgeStyle=orthogonalEdgeStyle;rounded=0;orthogonalLoop=1;jettySize=auto;html=1;" edge="1" parent="WIyWlLk6GJQsqaUBKTNV-1" source="WIyWlLk6GJQsqaUBKTNV-3" target="5j41u80jV56_UQv9FX3_-3">
          <mxGeometry relative="1" as="geometry" />
        </mxCell>
        <mxCell id="WIyWlLk6GJQsqaUBKTNV-3" value="Start" style="rounded=1;whiteSpace=wrap;html=1;fontSize=12;glass=0;strokeWidth=1;shadow=0;" parent="WIyWlLk6GJQsqaUBKTNV-1" vertex="1">
          <mxGeometry x="510" y="90" width="120" height="40" as="geometry" />
        </mxCell>
        <mxCell id="5j41u80jV56_UQv9FX3_-14" style="edgeStyle=orthogonalEdgeStyle;rounded=0;orthogonalLoop=1;jettySize=auto;html=1;entryX=0;entryY=0.5;entryDx=0;entryDy=0;" edge="1" parent="WIyWlLk6GJQsqaUBKTNV-1" source="WIyWlLk6GJQsqaUBKTNV-6">
          <mxGeometry relative="1" as="geometry">
            <mxPoint x="690" y="370" as="targetPoint" />
          </mxGeometry>
        </mxCell>
        <mxCell id="5j41u80jV56_UQv9FX3_-15" value="False" style="edgeLabel;html=1;align=center;verticalAlign=middle;resizable=0;points=[];" vertex="1" connectable="0" parent="5j41u80jV56_UQv9FX3_-14">
          <mxGeometry x="0.0116" relative="1" as="geometry">
            <mxPoint as="offset" />
          </mxGeometry>
        </mxCell>
        <mxCell id="5j41u80jV56_UQv9FX3_-19" value="" style="edgeStyle=orthogonalEdgeStyle;rounded=0;orthogonalLoop=1;jettySize=auto;html=1;" edge="1" parent="WIyWlLk6GJQsqaUBKTNV-1" source="WIyWlLk6GJQsqaUBKTNV-6" target="5j41u80jV56_UQv9FX3_-2">
          <mxGeometry relative="1" as="geometry" />
        </mxCell>
        <mxCell id="5j41u80jV56_UQv9FX3_-20" value="True" style="edgeLabel;html=1;align=center;verticalAlign=middle;resizable=0;points=[];" vertex="1" connectable="0" parent="5j41u80jV56_UQv9FX3_-19">
          <mxGeometry x="-0.4074" y="5" relative="1" as="geometry">
            <mxPoint x="-5" y="8" as="offset" />
          </mxGeometry>
        </mxCell>
        <mxCell id="WIyWlLk6GJQsqaUBKTNV-6" value="Can turn right?" style="rhombus;whiteSpace=wrap;html=1;shadow=0;fontFamily=Helvetica;fontSize=12;align=center;strokeWidth=1;spacing=6;spacingTop=-4;" parent="WIyWlLk6GJQsqaUBKTNV-1" vertex="1">
          <mxGeometry x="520" y="330" width="100" height="80" as="geometry" />
        </mxCell>
        <mxCell id="5j41u80jV56_UQv9FX3_-11" style="edgeStyle=orthogonalEdgeStyle;rounded=0;orthogonalLoop=1;jettySize=auto;html=1;entryX=0.5;entryY=0;entryDx=0;entryDy=0;" edge="1" parent="WIyWlLk6GJQsqaUBKTNV-1" target="WIyWlLk6GJQsqaUBKTNV-6">
          <mxGeometry relative="1" as="geometry">
            <mxPoint x="570" y="320" as="targetPoint" />
            <mxPoint x="764" y="350" as="sourcePoint" />
            <Array as="points">
              <mxPoint x="764" y="300" />
              <mxPoint x="570" y="300" />
            </Array>
          </mxGeometry>
        </mxCell>
        <mxCell id="WIyWlLk6GJQsqaUBKTNV-11" value="End" style="rounded=1;whiteSpace=wrap;html=1;fontSize=12;glass=0;strokeWidth=1;shadow=0;" parent="WIyWlLk6GJQsqaUBKTNV-1" vertex="1">
          <mxGeometry x="510" y="740" width="120" height="30" as="geometry" />
        </mxCell>
        <mxCell id="5j41u80jV56_UQv9FX3_-25" style="edgeStyle=orthogonalEdgeStyle;rounded=0;orthogonalLoop=1;jettySize=auto;html=1;exitX=0.5;exitY=1;exitDx=0;exitDy=0;entryX=0.5;entryY=0;entryDx=0;entryDy=0;" edge="1" parent="WIyWlLk6GJQsqaUBKTNV-1" source="5j41u80jV56_UQv9FX3_-0" target="5j41u80jV56_UQv9FX3_-5">
          <mxGeometry relative="1" as="geometry" />
        </mxCell>
        <mxCell id="5j41u80jV56_UQv9FX3_-0" value="Head down the hall and take the first left" style="rounded=0;whiteSpace=wrap;html=1;" vertex="1" parent="WIyWlLk6GJQsqaUBKTNV-1">
          <mxGeometry x="510" y="590" width="120" height="40" as="geometry" />
        </mxCell>
        <mxCell id="5j41u80jV56_UQv9FX3_-21" value="" style="edgeStyle=orthogonalEdgeStyle;rounded=0;orthogonalLoop=1;jettySize=auto;html=1;" edge="1" parent="WIyWlLk6GJQsqaUBKTNV-1" source="5j41u80jV56_UQv9FX3_-2" target="5j41u80jV56_UQv9FX3_-4">
          <mxGeometry relative="1" as="geometry" />
        </mxCell>
        <mxCell id="5j41u80jV56_UQv9FX3_-2" value="Turn right and head up steps" style="rounded=0;whiteSpace=wrap;html=1;" vertex="1" parent="WIyWlLk6GJQsqaUBKTNV-1">
          <mxGeometry x="510" y="450" width="120" height="40" as="geometry" />
        </mxCell>
        <mxCell id="5j41u80jV56_UQv9FX3_-17" value="" style="edgeStyle=orthogonalEdgeStyle;rounded=0;orthogonalLoop=1;jettySize=auto;html=1;" edge="1" parent="WIyWlLk6GJQsqaUBKTNV-1" source="5j41u80jV56_UQv9FX3_-3" target="5j41u80jV56_UQv9FX3_-6">
          <mxGeometry relative="1" as="geometry" />
        </mxCell>
        <mxCell id="5j41u80jV56_UQv9FX3_-3" value="Head out the door and turn left" style="rounded=0;whiteSpace=wrap;html=1;" vertex="1" parent="WIyWlLk6GJQsqaUBKTNV-1">
          <mxGeometry x="510" y="150" width="120" height="40" as="geometry" />
        </mxCell>
        <mxCell id="5j41u80jV56_UQv9FX3_-23" value="" style="edgeStyle=orthogonalEdgeStyle;rounded=0;orthogonalLoop=1;jettySize=auto;html=1;" edge="1" parent="WIyWlLk6GJQsqaUBKTNV-1" source="5j41u80jV56_UQv9FX3_-4" target="5j41u80jV56_UQv9FX3_-0">
          <mxGeometry relative="1" as="geometry" />
        </mxCell>
        <mxCell id="5j41u80jV56_UQv9FX3_-4" value="Walk straight until reaching music hall" style="rounded=0;whiteSpace=wrap;html=1;" vertex="1" parent="WIyWlLk6GJQsqaUBKTNV-1">
          <mxGeometry x="510" y="515" width="120" height="45" as="geometry" />
        </mxCell>
        <mxCell id="5j41u80jV56_UQv9FX3_-26" style="edgeStyle=orthogonalEdgeStyle;rounded=0;orthogonalLoop=1;jettySize=auto;html=1;exitX=0.5;exitY=1;exitDx=0;exitDy=0;entryX=0.5;entryY=0;entryDx=0;entryDy=0;" edge="1" parent="WIyWlLk6GJQsqaUBKTNV-1" source="5j41u80jV56_UQv9FX3_-5" target="WIyWlLk6GJQsqaUBKTNV-11">
          <mxGeometry relative="1" as="geometry" />
        </mxCell>
        <mxCell id="5j41u80jV56_UQv9FX3_-5" value="Walk until reaching the door and open" style="rounded=0;whiteSpace=wrap;html=1;" vertex="1" parent="WIyWlLk6GJQsqaUBKTNV-1">
          <mxGeometry x="510" y="660" width="120" height="50" as="geometry" />
        </mxCell>
        <mxCell id="5j41u80jV56_UQv9FX3_-13" style="edgeStyle=orthogonalEdgeStyle;rounded=0;orthogonalLoop=1;jettySize=auto;html=1;entryX=0.5;entryY=0;entryDx=0;entryDy=0;" edge="1" parent="WIyWlLk6GJQsqaUBKTNV-1" source="5j41u80jV56_UQv9FX3_-6" target="WIyWlLk6GJQsqaUBKTNV-6">
          <mxGeometry relative="1" as="geometry" />
        </mxCell>
        <mxCell id="5j41u80jV56_UQv9FX3_-6" value="Take a couple steps down the hallway" style="rounded=0;whiteSpace=wrap;html=1;" vertex="1" parent="WIyWlLk6GJQsqaUBKTNV-1">
          <mxGeometry x="510" y="230" width="120" height="30" as="geometry" />
        </mxCell>
        <mxCell id="5j41u80jV56_UQv9FX3_-29" style="edgeStyle=orthogonalEdgeStyle;rounded=0;orthogonalLoop=1;jettySize=auto;html=1;exitX=0.5;exitY=1;exitDx=0;exitDy=0;entryX=0.5;entryY=0;entryDx=0;entryDy=0;" edge="1" parent="WIyWlLk6GJQsqaUBKTNV-1" source="5j41u80jV56_UQv9FX3_-27" target="5j41u80jV56_UQv9FX3_-28">
          <mxGeometry relative="1" as="geometry" />
        </mxCell>
        <mxCell id="5j41u80jV56_UQv9FX3_-27" value="Start" style="rounded=1;whiteSpace=wrap;html=1;fontSize=12;glass=0;strokeWidth=1;shadow=0;" vertex="1" parent="WIyWlLk6GJQsqaUBKTNV-1">
          <mxGeometry x="110" y="90" width="120" height="40" as="geometry" />
        </mxCell>
        <mxCell id="5j41u80jV56_UQv9FX3_-31" style="edgeStyle=orthogonalEdgeStyle;rounded=0;orthogonalLoop=1;jettySize=auto;html=1;exitX=0.5;exitY=1;exitDx=0;exitDy=0;" edge="1" parent="WIyWlLk6GJQsqaUBKTNV-1" source="5j41u80jV56_UQv9FX3_-28" target="5j41u80jV56_UQv9FX3_-30">
          <mxGeometry relative="1" as="geometry" />
        </mxCell>
        <mxCell id="5j41u80jV56_UQv9FX3_-28" value="Place the pencil on the paper" style="rounded=0;whiteSpace=wrap;html=1;" vertex="1" parent="WIyWlLk6GJQsqaUBKTNV-1">
          <mxGeometry x="110" y="160" width="120" height="60" as="geometry" />
        </mxCell>
        <mxCell id="5j41u80jV56_UQv9FX3_-39" style="edgeStyle=orthogonalEdgeStyle;rounded=0;orthogonalLoop=1;jettySize=auto;html=1;exitX=1;exitY=0.5;exitDx=0;exitDy=0;entryX=0;entryY=0.5;entryDx=0;entryDy=0;" edge="1" parent="WIyWlLk6GJQsqaUBKTNV-1" source="5j41u80jV56_UQv9FX3_-30" target="5j41u80jV56_UQv9FX3_-38">
          <mxGeometry relative="1" as="geometry" />
        </mxCell>
        <mxCell id="5j41u80jV56_UQv9FX3_-40" value="False" style="edgeLabel;html=1;align=center;verticalAlign=middle;resizable=0;points=[];" vertex="1" connectable="0" parent="5j41u80jV56_UQv9FX3_-39">
          <mxGeometry x="-0.0273" relative="1" as="geometry">
            <mxPoint as="offset" />
          </mxGeometry>
        </mxCell>
        <mxCell id="5j41u80jV56_UQv9FX3_-43" style="edgeStyle=orthogonalEdgeStyle;rounded=0;orthogonalLoop=1;jettySize=auto;html=1;exitX=0.5;exitY=1;exitDx=0;exitDy=0;entryX=0.5;entryY=0;entryDx=0;entryDy=0;" edge="1" parent="WIyWlLk6GJQsqaUBKTNV-1" source="5j41u80jV56_UQv9FX3_-30" target="5j41u80jV56_UQv9FX3_-42">
          <mxGeometry relative="1" as="geometry" />
        </mxCell>
        <mxCell id="5j41u80jV56_UQv9FX3_-44" value="True" style="edgeLabel;html=1;align=center;verticalAlign=middle;resizable=0;points=[];" vertex="1" connectable="0" parent="5j41u80jV56_UQv9FX3_-43">
          <mxGeometry x="-0.0963" y="2" relative="1" as="geometry">
            <mxPoint as="offset" />
          </mxGeometry>
        </mxCell>
        <mxCell id="5j41u80jV56_UQv9FX3_-30" value="Can move one inch 90 degrees to the right of original position?" style="rhombus;whiteSpace=wrap;html=1;" vertex="1" parent="WIyWlLk6GJQsqaUBKTNV-1">
          <mxGeometry x="100" y="290" width="140" height="90" as="geometry" />
        </mxCell>
        <mxCell id="5j41u80jV56_UQv9FX3_-36" value="Take a couple more steps down the hall" style="rounded=0;whiteSpace=wrap;html=1;" vertex="1" parent="WIyWlLk6GJQsqaUBKTNV-1">
          <mxGeometry x="690" y="340" width="120" height="60" as="geometry" />
        </mxCell>
        <mxCell id="5j41u80jV56_UQv9FX3_-41" style="edgeStyle=orthogonalEdgeStyle;rounded=0;orthogonalLoop=1;jettySize=auto;html=1;exitX=0.5;exitY=0;exitDx=0;exitDy=0;entryX=0.5;entryY=0;entryDx=0;entryDy=0;" edge="1" parent="WIyWlLk6GJQsqaUBKTNV-1" source="5j41u80jV56_UQv9FX3_-38" target="5j41u80jV56_UQv9FX3_-30">
          <mxGeometry relative="1" as="geometry">
            <mxPoint x="170" y="260" as="targetPoint" />
            <mxPoint x="380.04347826086973" y="287" as="sourcePoint" />
            <Array as="points">
              <mxPoint x="380" y="260" />
              <mxPoint x="170" y="260" />
            </Array>
          </mxGeometry>
        </mxCell>
        <mxCell id="5j41u80jV56_UQv9FX3_-38" value="Set pencil down on a different area of the paper" style="rounded=0;whiteSpace=wrap;html=1;" vertex="1" parent="WIyWlLk6GJQsqaUBKTNV-1">
          <mxGeometry x="320" y="305" width="120" height="60" as="geometry" />
        </mxCell>
        <mxCell id="5j41u80jV56_UQv9FX3_-51" style="edgeStyle=orthogonalEdgeStyle;rounded=0;orthogonalLoop=1;jettySize=auto;html=1;exitX=0.5;exitY=1;exitDx=0;exitDy=0;entryX=0.5;entryY=0;entryDx=0;entryDy=0;" edge="1" parent="WIyWlLk6GJQsqaUBKTNV-1" source="5j41u80jV56_UQv9FX3_-42" target="5j41u80jV56_UQv9FX3_-46">
          <mxGeometry relative="1" as="geometry" />
        </mxCell>
        <mxCell id="5j41u80jV56_UQv9FX3_-42" value="Move one inch to the right" style="rounded=0;whiteSpace=wrap;html=1;" vertex="1" parent="WIyWlLk6GJQsqaUBKTNV-1">
          <mxGeometry x="110" y="420" width="120" height="40" as="geometry" />
        </mxCell>
        <mxCell id="5j41u80jV56_UQv9FX3_-45" style="edgeStyle=orthogonalEdgeStyle;rounded=0;orthogonalLoop=1;jettySize=auto;html=1;exitX=0.5;exitY=1;exitDx=0;exitDy=0;" edge="1" parent="WIyWlLk6GJQsqaUBKTNV-1" source="5j41u80jV56_UQv9FX3_-42" target="5j41u80jV56_UQv9FX3_-42">
          <mxGeometry relative="1" as="geometry" />
        </mxCell>
        <mxCell id="5j41u80jV56_UQv9FX3_-52" style="edgeStyle=orthogonalEdgeStyle;rounded=0;orthogonalLoop=1;jettySize=auto;html=1;exitX=0.5;exitY=1;exitDx=0;exitDy=0;entryX=0.5;entryY=0;entryDx=0;entryDy=0;" edge="1" parent="WIyWlLk6GJQsqaUBKTNV-1" source="5j41u80jV56_UQv9FX3_-46" target="5j41u80jV56_UQv9FX3_-50">
          <mxGeometry relative="1" as="geometry" />
        </mxCell>
        <mxCell id="5j41u80jV56_UQv9FX3_-46" value="Move one inch 90 degrees to the right" style="rounded=0;whiteSpace=wrap;html=1;" vertex="1" parent="WIyWlLk6GJQsqaUBKTNV-1">
          <mxGeometry x="110" y="480" width="120" height="40" as="geometry" />
        </mxCell>
        <mxCell id="5j41u80jV56_UQv9FX3_-55" style="edgeStyle=orthogonalEdgeStyle;rounded=0;orthogonalLoop=1;jettySize=auto;html=1;exitX=0.5;exitY=1;exitDx=0;exitDy=0;" edge="1" parent="WIyWlLk6GJQsqaUBKTNV-1" source="5j41u80jV56_UQv9FX3_-49" target="5j41u80jV56_UQv9FX3_-54">
          <mxGeometry relative="1" as="geometry" />
        </mxCell>
        <mxCell id="5j41u80jV56_UQv9FX3_-49" value="Move one inch 90 degrees to the right" style="rounded=0;whiteSpace=wrap;html=1;" vertex="1" parent="WIyWlLk6GJQsqaUBKTNV-1">
          <mxGeometry x="110" y="610" width="120" height="40" as="geometry" />
        </mxCell>
        <mxCell id="5j41u80jV56_UQv9FX3_-53" style="edgeStyle=orthogonalEdgeStyle;rounded=0;orthogonalLoop=1;jettySize=auto;html=1;exitX=0.5;exitY=1;exitDx=0;exitDy=0;" edge="1" parent="WIyWlLk6GJQsqaUBKTNV-1" source="5j41u80jV56_UQv9FX3_-50" target="5j41u80jV56_UQv9FX3_-49">
          <mxGeometry relative="1" as="geometry" />
        </mxCell>
        <mxCell id="5j41u80jV56_UQv9FX3_-50" value="Move one inch 90 degrees to the right" style="rounded=0;whiteSpace=wrap;html=1;" vertex="1" parent="WIyWlLk6GJQsqaUBKTNV-1">
          <mxGeometry x="110" y="540" width="120" height="40" as="geometry" />
        </mxCell>
        <mxCell id="5j41u80jV56_UQv9FX3_-57" style="edgeStyle=orthogonalEdgeStyle;rounded=0;orthogonalLoop=1;jettySize=auto;html=1;exitX=0.5;exitY=1;exitDx=0;exitDy=0;entryX=0.5;entryY=0;entryDx=0;entryDy=0;" edge="1" parent="WIyWlLk6GJQsqaUBKTNV-1" source="5j41u80jV56_UQv9FX3_-54" target="5j41u80jV56_UQv9FX3_-56">
          <mxGeometry relative="1" as="geometry" />
        </mxCell>
        <mxCell id="5j41u80jV56_UQv9FX3_-54" value="lift up pencil" style="rounded=0;whiteSpace=wrap;html=1;" vertex="1" parent="WIyWlLk6GJQsqaUBKTNV-1">
          <mxGeometry x="110" y="680" width="120" height="30" as="geometry" />
        </mxCell>
        <mxCell id="5j41u80jV56_UQv9FX3_-56" value="End" style="rounded=1;whiteSpace=wrap;html=1;" vertex="1" parent="WIyWlLk6GJQsqaUBKTNV-1">
          <mxGeometry x="110" y="740" width="120" height="20" as="geometry" />
        </mxCell>
        <mxCell id="5j41u80jV56_UQv9FX3_-63" style="edgeStyle=orthogonalEdgeStyle;rounded=0;orthogonalLoop=1;jettySize=auto;html=1;exitX=0.5;exitY=1;exitDx=0;exitDy=0;" edge="1" parent="WIyWlLk6GJQsqaUBKTNV-1" source="5j41u80jV56_UQv9FX3_-58" target="5j41u80jV56_UQv9FX3_-62">
          <mxGeometry relative="1" as="geometry" />
        </mxCell>
        <mxCell id="5j41u80jV56_UQv9FX3_-58" value="start" style="rounded=1;whiteSpace=wrap;html=1;" vertex="1" parent="WIyWlLk6GJQsqaUBKTNV-1">
          <mxGeometry x="910" y="90" width="120" height="40" as="geometry" />
        </mxCell>
        <mxCell id="5j41u80jV56_UQv9FX3_-59" value="1" style="text;html=1;align=center;verticalAlign=middle;resizable=0;points=[];autosize=1;strokeColor=none;fillColor=none;" vertex="1" parent="WIyWlLk6GJQsqaUBKTNV-1">
          <mxGeometry x="155" y="50" width="30" height="30" as="geometry" />
        </mxCell>
        <mxCell id="5j41u80jV56_UQv9FX3_-60" value="2" style="text;html=1;align=center;verticalAlign=middle;resizable=0;points=[];autosize=1;strokeColor=none;fillColor=none;" vertex="1" parent="WIyWlLk6GJQsqaUBKTNV-1">
          <mxGeometry x="555" y="48" width="30" height="30" as="geometry" />
        </mxCell>
        <mxCell id="5j41u80jV56_UQv9FX3_-61" value="3" style="text;html=1;align=center;verticalAlign=middle;resizable=0;points=[];autosize=1;strokeColor=none;fillColor=none;" vertex="1" parent="WIyWlLk6GJQsqaUBKTNV-1">
          <mxGeometry x="955" y="48" width="30" height="30" as="geometry" />
        </mxCell>
        <mxCell id="5j41u80jV56_UQv9FX3_-65" style="edgeStyle=orthogonalEdgeStyle;rounded=0;orthogonalLoop=1;jettySize=auto;html=1;exitX=0.5;exitY=1;exitDx=0;exitDy=0;entryX=0.5;entryY=0;entryDx=0;entryDy=0;" edge="1" parent="WIyWlLk6GJQsqaUBKTNV-1" source="5j41u80jV56_UQv9FX3_-62" target="5j41u80jV56_UQv9FX3_-64">
          <mxGeometry relative="1" as="geometry" />
        </mxCell>
        <mxCell id="5j41u80jV56_UQv9FX3_-62" value="Open up the phone app" style="rounded=0;whiteSpace=wrap;html=1;" vertex="1" parent="WIyWlLk6GJQsqaUBKTNV-1">
          <mxGeometry x="910" y="150" width="120" height="40" as="geometry" />
        </mxCell>
        <mxCell id="5j41u80jV56_UQv9FX3_-67" style="edgeStyle=orthogonalEdgeStyle;rounded=0;orthogonalLoop=1;jettySize=auto;html=1;exitX=0.5;exitY=1;exitDx=0;exitDy=0;entryX=0.5;entryY=0;entryDx=0;entryDy=0;" edge="1" parent="WIyWlLk6GJQsqaUBKTNV-1" source="5j41u80jV56_UQv9FX3_-64" target="5j41u80jV56_UQv9FX3_-69">
          <mxGeometry relative="1" as="geometry">
            <mxPoint x="970" y="270" as="targetPoint" />
          </mxGeometry>
        </mxCell>
        <mxCell id="5j41u80jV56_UQv9FX3_-64" value="Open the contacts section" style="rounded=0;whiteSpace=wrap;html=1;" vertex="1" parent="WIyWlLk6GJQsqaUBKTNV-1">
          <mxGeometry x="910" y="210" width="120" height="40" as="geometry" />
        </mxCell>
        <mxCell id="5j41u80jV56_UQv9FX3_-71" style="edgeStyle=orthogonalEdgeStyle;rounded=0;orthogonalLoop=1;jettySize=auto;html=1;exitX=0.5;exitY=1;exitDx=0;exitDy=0;entryX=0.5;entryY=0;entryDx=0;entryDy=0;" edge="1" parent="WIyWlLk6GJQsqaUBKTNV-1" source="5j41u80jV56_UQv9FX3_-69" target="5j41u80jV56_UQv9FX3_-70">
          <mxGeometry relative="1" as="geometry" />
        </mxCell>
        <mxCell id="5j41u80jV56_UQv9FX3_-72" value="False" style="edgeLabel;html=1;align=center;verticalAlign=middle;resizable=0;points=[];" vertex="1" connectable="0" parent="5j41u80jV56_UQv9FX3_-71">
          <mxGeometry x="-0.0976" y="-1" relative="1" as="geometry">
            <mxPoint as="offset" />
          </mxGeometry>
        </mxCell>
        <mxCell id="5j41u80jV56_UQv9FX3_-74" style="edgeStyle=orthogonalEdgeStyle;rounded=0;orthogonalLoop=1;jettySize=auto;html=1;exitX=1;exitY=0.5;exitDx=0;exitDy=0;entryX=0;entryY=0.5;entryDx=0;entryDy=0;" edge="1" parent="WIyWlLk6GJQsqaUBKTNV-1" source="5j41u80jV56_UQv9FX3_-69">
          <mxGeometry relative="1" as="geometry">
            <mxPoint x="1060" y="350" as="targetPoint" />
          </mxGeometry>
        </mxCell>
        <mxCell id="5j41u80jV56_UQv9FX3_-75" value="True" style="edgeLabel;html=1;align=center;verticalAlign=middle;resizable=0;points=[];" vertex="1" connectable="0" parent="5j41u80jV56_UQv9FX3_-74">
          <mxGeometry x="-0.2989" y="1" relative="1" as="geometry">
            <mxPoint as="offset" />
          </mxGeometry>
        </mxCell>
        <mxCell id="5j41u80jV56_UQv9FX3_-69" value="Contact is added?" style="rhombus;whiteSpace=wrap;html=1;" vertex="1" parent="WIyWlLk6GJQsqaUBKTNV-1">
          <mxGeometry x="930" y="310" width="80" height="80" as="geometry" />
        </mxCell>
        <mxCell id="5j41u80jV56_UQv9FX3_-78" style="edgeStyle=orthogonalEdgeStyle;rounded=0;orthogonalLoop=1;jettySize=auto;html=1;exitX=0.5;exitY=1;exitDx=0;exitDy=0;entryX=0.5;entryY=0;entryDx=0;entryDy=0;" edge="1" parent="WIyWlLk6GJQsqaUBKTNV-1" source="5j41u80jV56_UQv9FX3_-70" target="5j41u80jV56_UQv9FX3_-77">
          <mxGeometry relative="1" as="geometry" />
        </mxCell>
        <mxCell id="5j41u80jV56_UQv9FX3_-70" value="Type in persons name and phone number" style="rounded=0;whiteSpace=wrap;html=1;" vertex="1" parent="WIyWlLk6GJQsqaUBKTNV-1">
          <mxGeometry x="910" y="430" width="120" height="50" as="geometry" />
        </mxCell>
        <mxCell id="5j41u80jV56_UQv9FX3_-76" style="edgeStyle=orthogonalEdgeStyle;rounded=0;orthogonalLoop=1;jettySize=auto;html=1;" edge="1" parent="WIyWlLk6GJQsqaUBKTNV-1" source="5j41u80jV56_UQv9FX3_-73">
          <mxGeometry relative="1" as="geometry">
            <mxPoint x="970" y="310" as="targetPoint" />
            <Array as="points">
              <mxPoint x="1120" y="295" />
              <mxPoint x="1121" y="295" />
              <mxPoint x="1121" y="270" />
            </Array>
          </mxGeometry>
        </mxCell>
        <mxCell id="5j41u80jV56_UQv9FX3_-73" value="Select a new person to add to contacts" style="rounded=0;whiteSpace=wrap;html=1;" vertex="1" parent="WIyWlLk6GJQsqaUBKTNV-1">
          <mxGeometry x="1060" y="320" width="120" height="60" as="geometry" />
        </mxCell>
        <mxCell id="5j41u80jV56_UQv9FX3_-80" style="edgeStyle=orthogonalEdgeStyle;rounded=0;orthogonalLoop=1;jettySize=auto;html=1;exitX=0.5;exitY=1;exitDx=0;exitDy=0;entryX=0.5;entryY=0;entryDx=0;entryDy=0;" edge="1" parent="WIyWlLk6GJQsqaUBKTNV-1" source="5j41u80jV56_UQv9FX3_-77" target="5j41u80jV56_UQv9FX3_-79">
          <mxGeometry relative="1" as="geometry" />
        </mxCell>
        <mxCell id="5j41u80jV56_UQv9FX3_-77" value="Select &quot;Add to contacts&quot; and exit the app" style="rounded=0;whiteSpace=wrap;html=1;" vertex="1" parent="WIyWlLk6GJQsqaUBKTNV-1">
          <mxGeometry x="910" y="500" width="120" height="50" as="geometry" />
        </mxCell>
        <mxCell id="5j41u80jV56_UQv9FX3_-79" value="End" style="rounded=1;whiteSpace=wrap;html=1;" vertex="1" parent="WIyWlLk6GJQsqaUBKTNV-1">
          <mxGeometry x="910" y="565" width="120" height="25" as="geometry" />
        </mxCell>
      </root>
    </mxGraphModel>
  </diagram>
</mxfile>
